<?xml version="1.0" standalone="no"?>
<!DOCTYPE svg PUBLIC "-//W3C//DTD SVG 1.1//EN" "http://www.w3.org/Graphics/SVG/1.1/DTD/svg11.dtd">
<svg version="1.1" xmlns="http://www.w3.org/2000/svg" viewBox="0 0 476.08984375 69.2734375" width="1428.26953125" height="207.8203125"><!-- svg-source:excalidraw --><metadata></metadata><defs><style class="style-fonts">
      </style></defs><g transform="translate(188.90234375 29.5546875) rotate(0 49.142578125 5.08203125)" stroke="none"><path fill="#d3d3d3" d="M 0,7.51 Q 0,7.51 -7.91,7.36 -15.83,7.20 -29.46,6.94 -43.09,6.67 -59.83,6.48 -76.56,6.29 -93.76,6.14 -110.96,6.00 -125.05,5.90 -139.14,5.80 -148.45,5.72 -157.75,5.65 -163.64,6.05 -169.54,6.45 -172.23,6.83 -174.92,7.22 -175.78,7.11 -176.65,7.01 -177.46,6.70 -178.28,6.39 -178.99,5.90 -179.71,5.40 -180.29,4.75 -180.86,4.10 -181.27,3.33 -181.67,2.56 -181.88,1.71 -182.09,0.87 -182.09,-0.00 -182.09,-0.87 -181.88,-1.71 -181.67,-2.56 -181.27,-3.33 -180.86,-4.10 -180.29,-4.75 -179.71,-5.40 -178.99,-5.90 -178.27,-6.39 -177.46,-6.70 -176.65,-7.01 -175.78,-7.11 -174.92,-7.22 -167.64,-6.97 -160.35,-6.73 -141.78,-6.61 -123.22,-6.49 -93.28,-6.84 -63.35,-7.19 -26.99,-8.17 9.36,-9.15 48.20,-10.79 87.05,-12.43 122.00,-14.52 156.96,-16.60 181.72,-18.37 206.49,-20.13 223.05,-21.25 239.61,-22.36 249.56,-23.01 259.52,-23.67 264.44,-24.51 269.36,-25.36 269.95,-25.63 270.53,-25.91 271.33,-25.87 272.12,-25.83 272.88,-25.60 273.65,-25.37 274.33,-24.97 275.02,-24.57 275.59,-24.01 276.15,-23.45 276.57,-22.78 276.99,-22.10 277.24,-21.34 277.48,-20.59 277.54,-19.79 277.60,-19.00 277.46,-18.22 277.33,-17.43 277.01,-16.70 276.69,-15.97 276.20,-15.34 275.72,-14.71 275.10,-14.21 274.48,-13.71 273.76,-13.38 273.03,-13.05 272.25,-12.89 271.47,-12.74 263.18,-12.71 254.88,-12.68 233.97,-11.19 213.05,-9.70 179.26,-6.05 145.47,-2.39 104.27,2.55 63.07,7.51 25.11,12.36 -12.83,17.21 -41.60,20.93 -70.37,24.65 -90.36,27.02 -110.36,29.38 -122.66,30.76 -134.95,32.14 -141.01,33.31 -147.06,34.49 -148.39,35.13 -149.71,35.77 -150.52,35.78 -151.32,35.78 -152.11,35.59 -152.89,35.41 -153.61,35.04 -154.32,34.67 -154.93,34.14 -155.53,33.60 -155.99,32.94 -156.45,32.28 -156.74,31.53 -157.03,30.78 -157.13,29.98 -157.24,29.19 -157.14,28.39 -157.05,27.59 -156.77,26.83 -156.49,26.08 -156.03,25.41 -155.58,24.75 -154.98,24.21 -154.38,23.67 -153.67,23.29 -152.96,22.92 -152.18,22.72 -151.40,22.52 -144.85,22.19 -138.30,21.85 -121.97,20.62 -105.64,19.40 -79.77,17.32 -53.90,15.25 -25.11,13.38 3.66,11.50 29.04,10.20 54.42,8.89 75.48,7.98 96.53,7.08 111.62,6.50 126.70,5.92 136.09,5.54 145.49,5.15 150.96,4.39 156.44,3.62 160.08,2.58 163.72,1.53 164.62,1.56 165.52,1.60 166.39,1.85 167.25,2.10 168.03,2.54 168.82,2.99 169.47,3.62 170.12,4.24 170.60,5.00 171.09,5.76 171.37,6.61 171.66,7.47 171.73,8.37 171.81,9.27 171.67,10.16 171.52,11.05 171.17,11.88 170.82,12.71 170.28,13.43 169.74,14.15 169.04,14.72 168.35,15.29 167.53,15.68 166.72,16.07 165.84,16.25 164.96,16.43 156.60,16.29 148.25,16.15 138.07,15.77 127.89,15.40 115.91,15.68 103.94,15.97 92.01,17.23 80.08,18.49 69.20,20.17 58.31,21.85 49.95,23.17 41.60,24.49 35.96,25.79 30.32,27.08 26.19,28.15 22.07,29.22 20.86,29.22 19.65,29.21 18.51,28.82 17.37,28.43 16.42,27.69 15.46,26.96 14.79,25.96 14.12,24.95 13.80,23.79 13.48,22.63 13.55,21.42 13.62,20.22 14.08,19.10 14.53,17.98 15.31,17.07 16.10,16.15 17.14,15.54 18.17,14.92 19.35,14.67 20.53,14.41 21.73,14.55 22.93,14.69 24.02,15.20 25.11,15.71 25.98,16.54 26.86,17.38 27.41,18.45 27.97,19.51 28.16,20.71 28.35,21.90 28.15,23.09 27.95,24.28 27.38,25.34 26.81,26.40 25.93,27.23 25.05,28.05 23.95,28.55 22.85,29.05 21.65,29.18 20.45,29.30 19.28,29.03 18.10,28.77 17.07,28.14 16.04,27.51 15.27,26.59 14.49,25.67 14.05,24.55 13.61,23.42 13.55,22.22 13.49,21.01 13.82,19.85 14.15,18.69 14.83,17.70 15.51,16.70 16.48,15.98 17.44,15.25 18.59,14.87 19.73,14.50 19.73,14.50 19.73,14.50 23.98,14.23 28.24,13.97 33.94,13.47 39.64,12.96 47.97,11.44 56.31,9.93 67.43,7.92 78.54,5.90 90.92,4.19 103.31,2.49 115.60,1.64 127.90,0.80 138.30,0.43 148.71,0.06 156.21,0.80 163.72,1.53 164.62,1.56 165.52,1.60 166.39,1.85 167.25,2.09 168.03,2.54 168.82,2.99 169.47,3.62 170.12,4.24 170.60,5.00 171.09,5.76 171.37,6.61 171.66,7.47 171.73,8.37 171.81,9.26 171.67,10.15 171.52,11.04 171.17,11.87 170.82,12.70 170.28,13.43 169.74,14.15 169.05,14.72 168.35,15.29 167.53,15.68 166.72,16.07 165.84,16.25 164.96,16.43 161.05,16.34 157.15,16.25 151.56,16.11 145.97,15.97 136.56,16.42 127.15,16.87 112.09,17.53 97.04,18.19 76.04,19.21 55.04,20.22 29.75,21.68 4.47,23.14 -24.19,25.23 -52.86,27.31 -78.69,29.68 -104.53,32.06 -121.12,33.71 -137.72,35.36 -143.71,35.57 -149.71,35.77 -150.52,35.78 -151.32,35.78 -152.11,35.59 -152.89,35.41 -153.60,35.04 -154.32,34.67 -154.93,34.14 -155.53,33.61 -155.99,32.95 -156.45,32.29 -156.74,31.53 -157.03,30.78 -157.13,29.98 -157.24,29.19 -157.14,28.39 -157.05,27.59 -156.77,26.83 -156.49,26.08 -156.04,25.41 -155.58,24.75 -154.98,24.21 -154.38,23.67 -153.67,23.30 -152.96,22.92 -152.18,22.72 -151.40,22.52 -150.02,22.40 -148.64,22.28 -142.40,21.89 -136.17,21.50 -123.91,20.08 -111.64,18.67 -91.71,16.25 -71.78,13.84 -43.01,10.05 -14.25,6.25 23.72,1.29 61.71,-3.65 102.95,-8.76 144.20,-13.86 178.16,-17.73 212.13,-21.60 233.34,-23.36 254.56,-25.13 262.54,-25.52 270.53,-25.91 271.33,-25.87 272.12,-25.83 272.88,-25.60 273.65,-25.38 274.33,-24.97 275.02,-24.57 275.59,-24.01 276.15,-23.45 276.57,-22.78 276.99,-22.10 277.24,-21.34 277.48,-20.59 277.54,-19.79 277.60,-19.00 277.46,-18.22 277.33,-17.43 277.01,-16.70 276.69,-15.97 276.21,-15.34 275.72,-14.71 275.10,-14.21 274.48,-13.72 273.76,-13.38 273.04,-13.05 272.25,-12.89 271.47,-12.74 270.89,-12.72 270.30,-12.69 265.27,-12.82 260.25,-12.96 250.30,-12.26 240.36,-11.56 223.82,-10.39 207.29,-9.22 182.46,-7.37 157.64,-5.52 122.59,-3.31 87.55,-1.11 48.63,0.68 9.71,2.49 -26.72,3.68 -63.15,4.88 -93.15,5.52 -123.16,6.16 -141.76,6.45 -160.35,6.73 -167.64,6.97 -174.92,7.22 -175.78,7.11 -176.65,7.01 -177.46,6.70 -178.27,6.39 -178.99,5.90 -179.71,5.40 -180.29,4.75 -180.86,4.10 -181.27,3.33 -181.67,2.56 -181.88,1.71 -182.09,0.87 -182.09,0.00 -182.09,-0.87 -181.88,-1.71 -181.67,-2.56 -181.27,-3.33 -180.86,-4.10 -180.29,-4.75 -179.71,-5.40 -178.99,-5.90 -178.28,-6.39 -177.46,-6.70 -176.65,-7.01 -175.78,-7.11 -174.92,-7.22 -172.23,-6.83 -169.54,-6.45 -163.64,-6.05 -157.75,-5.65 -148.45,-5.72 -139.14,-5.80 -125.05,-5.90 -110.96,-6.00 -93.76,-6.14 -76.56,-6.29 -59.83,-6.48 -43.09,-6.67 -29.46,-6.94 -15.83,-7.20 -7.91,-7.36 0,-7.51 0.89,-7.40 1.79,-7.29 2.64,-6.97 3.49,-6.65 4.23,-6.13 4.98,-5.62 5.58,-4.94 6.18,-4.26 6.60,-3.46 7.02,-2.66 7.24,-1.78 7.46,-0.90 7.46,0.00 7.46,0.90 7.24,1.78 7.02,2.66 6.60,3.46 6.18,4.26 5.58,4.94 4.98,5.62 4.23,6.14 3.49,6.65 2.64,6.97 1.79,7.29 0.89,7.40 -0.00,7.51 -0.00,7.51 L 0,7.51 Z"></path></g></svg>