<?xml version="1.0" standalone="no"?>
<!DOCTYPE svg PUBLIC "-//W3C//DTD SVG 1.1//EN" "http://www.w3.org/Graphics/SVG/1.1/DTD/svg11.dtd">
<svg version="1.1" xmlns="http://www.w3.org/2000/svg" viewBox="0 0 119.14994566156747 99.44508986544798" width="357.4498369847024" height="298.33526959634395"><!-- svg-source:excalidraw --><metadata></metadata><defs><style class="style-fonts">
      </style></defs><g stroke-linecap="round"><g transform="translate(32.09373614951255 10.191670962395165) rotate(0 27.481236681271184 39.53087397032883)"><path d="M1.06 0.56 C-2.19 10.58, -30.98 47.36, -18.31 60.47 C-5.64 73.59, 61.38 76.17, 77.06 79.25 M0.15 -0.19 C-3.29 9.95, -31.55 48.73, -18.82 61.67 C-6.08 74.62, 60.84 74.96, 76.57 77.5" stroke="#d3d3d3" stroke-width="4" fill="none"></path></g><g transform="translate(32.09373614951255 10.191670962395165) rotate(0 27.481236681271184 39.53087397032883)"><path d="M52.45 84.07 C63 82.63, 70.64 79.48, 76.57 77.5 M52.45 84.07 C61.95 82.07, 71.93 79.6, 76.57 77.5" stroke="#d3d3d3" stroke-width="4" fill="none"></path></g><g transform="translate(32.09373614951255 10.191670962395165) rotate(0 27.481236681271184 39.53087397032883)"><path d="M53.86 67.03 C63.9 72.41, 70.97 76.07, 76.57 77.5 M53.86 67.03 C62.69 71.74, 72.11 75.98, 76.57 77.5" stroke="#d3d3d3" stroke-width="4" fill="none"></path></g></g><mask></mask></svg>