<?xml version="1.0" standalone="no"?>
<!DOCTYPE svg PUBLIC "-//W3C//DTD SVG 1.1//EN" "http://www.w3.org/Graphics/SVG/1.1/DTD/svg11.dtd">
<svg version="1.1" xmlns="http://www.w3.org/2000/svg" viewBox="0 0 147.01171875 205.14453125" width="441.03515625" height="615.43359375"><!-- svg-source:excalidraw --><metadata></metadata><defs><style class="style-fonts">
      </style></defs><g transform="translate(57.75390625 172.671875) rotate(0 15.751953125 -70.099609375)" stroke="none"><path fill="#d3d3d3" d="M -7.27,3.39 Q -7.27,3.39 -11.71,-6.98 -16.15,-17.36 -20.90,-29.70 -25.65,-42.05 -30.45,-56.45 -35.24,-70.84 -38.96,-83.93 -42.68,-97.02 -45.18,-107.13 -47.69,-117.24 -49.39,-124.77 -51.09,-132.30 -52.26,-137.41 -53.43,-142.52 -54.38,-149.32 -55.32,-156.12 -53.50,-160.21 -51.67,-164.30 -47.14,-167.09 -42.60,-169.89 -36.85,-170.73 -31.09,-171.58 -24.07,-170.46 -17.05,-169.33 -9.75,-165.41 -2.44,-161.48 3.63,-155.77 9.71,-150.06 14.26,-143.10 18.82,-136.15 21.67,-128.36 24.52,-120.56 26.06,-113.31 27.60,-106.07 28.46,-100.20 29.31,-94.34 29.74,-89.83 30.16,-85.33 30.00,-79.91 29.84,-74.49 29.73,-73.83 29.62,-73.18 29.26,-72.01 28.89,-70.84 28.26,-69.79 27.63,-68.75 26.77,-67.88 25.91,-67.02 24.86,-66.38 23.82,-65.75 22.65,-65.38 21.48,-65.01 20.26,-64.94 19.04,-64.86 17.84,-65.08 16.64,-65.30 15.52,-65.80 14.41,-66.30 13.44,-67.05 12.48,-67.80 11.72,-68.76 10.97,-69.73 10.47,-70.84 9.96,-71.95 9.74,-73.16 9.52,-74.36 9.59,-75.58 9.66,-76.80 11.02,-81.43 12.38,-86.07 15.37,-92.37 18.35,-98.68 22.46,-106.16 26.57,-113.64 30.22,-120.55 33.88,-127.45 36.92,-133.21 39.96,-138.97 42.27,-143.17 44.58,-147.37 49.83,-152.28 55.08,-157.19 59.75,-157.16 64.41,-157.14 68.52,-153.80 72.63,-150.46 75.54,-144.82 78.45,-139.17 80.53,-130.90 82.62,-122.62 83.88,-111.81 85.15,-100.99 85.44,-88.10 85.73,-75.21 84.44,-62.37 83.15,-49.53 79.99,-37.94 76.82,-26.36 72.51,-16.45 68.20,-6.55 64.36,0.50 60.51,7.56 57.89,12.16 55.26,16.76 51.60,22.10 47.94,27.44 46.98,28.32 46.02,29.21 44.83,29.74 43.64,30.27 42.34,30.39 41.04,30.51 39.77,30.21 38.50,29.91 37.39,29.23 36.28,28.54 35.45,27.53 34.62,26.52 34.16,25.31 33.69,24.09 33.64,22.78 33.59,21.48 33.96,20.23 34.32,18.98 35.07,17.91 35.82,16.84 36.87,16.06 37.92,15.29 39.16,14.89 40.40,14.49 41.71,14.51 43.01,14.53 44.24,14.96 45.47,15.40 46.50,16.20 47.53,17.01 48.24,18.10 48.96,19.19 49.29,20.45 49.62,21.71 49.53,23.01 49.44,24.32 48.94,25.52 48.44,26.73 47.58,27.71 46.72,28.69 45.59,29.35 44.47,30.00 43.19,30.26 41.91,30.52 40.62,30.36 39.32,30.20 38.15,29.64 36.97,29.07 36.04,28.16 35.10,27.25 34.51,26.09 33.91,24.93 33.72,23.64 33.53,22.35 33.76,21.07 33.99,19.78 34.62,18.64 35.25,17.49 35.25,17.49 35.24,17.50 39.37,13.12 43.50,8.74 46.50,5.08 49.51,1.42 53.16,-4.96 56.81,-11.34 60.50,-20.48 64.19,-29.63 66.70,-40.14 69.21,-50.65 69.84,-62.53 70.47,-74.41 69.42,-86.31 68.37,-98.21 66.27,-107.62 64.16,-117.04 61.97,-127.47 59.78,-137.90 57.30,-134.41 54.83,-130.91 51.84,-125.55 48.86,-120.19 45.76,-113.19 42.67,-106.20 39.73,-98.42 36.78,-90.64 33.20,-81.91 29.62,-73.18 29.26,-72.01 28.90,-70.84 28.26,-69.80 27.63,-68.75 26.77,-67.88 25.91,-67.02 24.86,-66.38 23.82,-65.75 22.65,-65.38 21.49,-65.02 20.27,-64.94 19.05,-64.86 17.84,-65.08 16.64,-65.30 15.52,-65.80 14.41,-66.30 13.44,-67.05 12.48,-67.80 11.73,-68.76 10.97,-69.72 10.47,-70.84 9.96,-71.95 9.74,-73.15 9.52,-74.36 9.59,-75.58 9.66,-76.80 10.33,-78.49 10.99,-80.17 11.57,-86.29 12.15,-92.40 11.76,-97.55 11.37,-102.71 10.15,-108.75 8.94,-114.80 6.67,-120.75 4.41,-126.71 0.94,-131.84 -2.51,-136.96 -7.03,-141.02 -11.55,-145.07 -16.21,-147.68 -20.88,-150.29 -25.22,-151.27 -29.56,-152.24 -34.25,-153.49 -38.95,-154.74 -39.32,-149.62 -39.70,-144.50 -39.43,-139.63 -39.16,-134.77 -37.79,-127.46 -36.41,-120.16 -33.75,-110.30 -31.09,-100.45 -27.18,-87.72 -23.27,-75.00 -18.22,-61.08 -13.17,-47.15 -8.05,-35.34 -2.94,-23.52 2.16,-13.46 7.27,-3.39 7.57,-2.47 7.87,-1.55 7.95,-0.59 8.02,0.37 7.86,1.32 7.70,2.28 7.31,3.17 6.93,4.05 6.34,4.82 5.75,5.59 5.00,6.20 4.25,6.81 3.37,7.22 2.49,7.63 1.54,7.82 0.59,8.00 -0.37,7.96 -1.33,7.91 -2.26,7.64 -3.19,7.36 -4.02,6.87 -4.86,6.39 -5.55,5.71 -6.25,5.04 -6.76,4.21 -7.27,3.39 -7.27,3.39 L -7.27,3.39 Z"></path></g></svg>